<mxfile host="app.diagrams.net" modified="2021-04-15T07:15:26.043Z" agent="5.0 (Windows NT 10.0; Win64; x64) AppleWebKit/537.36 (KHTML, like Gecko) Chrome/89.0.4389.128 Safari/537.36" etag="hqE2tgsJ7BQY37r2Cord" version="14.6.0" type="github">
  <diagram id="eRPnWml2voKG6xGRpNGB" name="Page-1">
    <mxGraphModel dx="1483" dy="829" grid="1" gridSize="10" guides="1" tooltips="1" connect="1" arrows="1" fold="1" page="1" pageScale="1" pageWidth="3300" pageHeight="4681" math="0" shadow="0">
      <root>
        <mxCell id="0" />
        <mxCell id="1" parent="0" />
        <mxCell id="xIAFL48G_zA7Xw-LlSgU-2" value="&lt;font style=&quot;font-size: 24px&quot;&gt;CNN网络&lt;/font&gt;" style="rounded=0;whiteSpace=wrap;html=1;" vertex="1" parent="1">
          <mxGeometry x="360" y="130" width="120" height="60" as="geometry" />
        </mxCell>
        <mxCell id="xIAFL48G_zA7Xw-LlSgU-15" style="edgeStyle=orthogonalEdgeStyle;rounded=0;orthogonalLoop=1;jettySize=auto;html=1;exitX=1;exitY=0.5;exitDx=0;exitDy=0;entryX=0;entryY=0.5;entryDx=0;entryDy=0;" edge="1" parent="1" source="xIAFL48G_zA7Xw-LlSgU-3" target="xIAFL48G_zA7Xw-LlSgU-5">
          <mxGeometry relative="1" as="geometry">
            <Array as="points">
              <mxPoint x="590" y="410" />
              <mxPoint x="590" y="290" />
            </Array>
          </mxGeometry>
        </mxCell>
        <mxCell id="xIAFL48G_zA7Xw-LlSgU-3" value="&lt;font style=&quot;font-size: 24px&quot;&gt;MFCC&lt;/font&gt;" style="rounded=0;whiteSpace=wrap;html=1;" vertex="1" parent="1">
          <mxGeometry x="360" y="380" width="120" height="60" as="geometry" />
        </mxCell>
        <mxCell id="xIAFL48G_zA7Xw-LlSgU-13" style="edgeStyle=orthogonalEdgeStyle;rounded=0;orthogonalLoop=1;jettySize=auto;html=1;exitX=1;exitY=0.5;exitDx=0;exitDy=0;entryX=0;entryY=0.5;entryDx=0;entryDy=0;" edge="1" parent="1" target="xIAFL48G_zA7Xw-LlSgU-5">
          <mxGeometry relative="1" as="geometry">
            <mxPoint x="480" y="160" as="sourcePoint" />
            <Array as="points">
              <mxPoint x="590" y="160" />
              <mxPoint x="590" y="290" />
            </Array>
          </mxGeometry>
        </mxCell>
        <mxCell id="xIAFL48G_zA7Xw-LlSgU-16" style="edgeStyle=orthogonalEdgeStyle;rounded=0;orthogonalLoop=1;jettySize=auto;html=1;exitX=1;exitY=0.5;exitDx=0;exitDy=0;" edge="1" parent="1" source="xIAFL48G_zA7Xw-LlSgU-5">
          <mxGeometry relative="1" as="geometry">
            <mxPoint x="920" y="290" as="targetPoint" />
          </mxGeometry>
        </mxCell>
        <mxCell id="xIAFL48G_zA7Xw-LlSgU-5" value="&lt;font style=&quot;font-size: 24px&quot;&gt;transformer神经网络&lt;/font&gt;" style="rounded=0;whiteSpace=wrap;html=1;" vertex="1" parent="1">
          <mxGeometry x="710" y="260" width="120" height="60" as="geometry" />
        </mxCell>
        <mxCell id="xIAFL48G_zA7Xw-LlSgU-17" style="edgeStyle=orthogonalEdgeStyle;rounded=0;orthogonalLoop=1;jettySize=auto;html=1;exitX=1;exitY=0.5;exitDx=0;exitDy=0;entryX=0;entryY=0.5;entryDx=0;entryDy=0;" edge="1" parent="1" target="xIAFL48G_zA7Xw-LlSgU-9">
          <mxGeometry relative="1" as="geometry">
            <mxPoint x="910" y="290" as="sourcePoint" />
          </mxGeometry>
        </mxCell>
        <mxCell id="xIAFL48G_zA7Xw-LlSgU-21" style="edgeStyle=orthogonalEdgeStyle;rounded=0;orthogonalLoop=1;jettySize=auto;html=1;exitX=1;exitY=0.5;exitDx=0;exitDy=0;entryX=0;entryY=0.5;entryDx=0;entryDy=0;" edge="1" parent="1" target="xIAFL48G_zA7Xw-LlSgU-20">
          <mxGeometry relative="1" as="geometry">
            <mxPoint x="910" y="290" as="sourcePoint" />
            <Array as="points">
              <mxPoint x="920" y="290" />
              <mxPoint x="920" y="410" />
            </Array>
          </mxGeometry>
        </mxCell>
        <mxCell id="xIAFL48G_zA7Xw-LlSgU-10" style="edgeStyle=orthogonalEdgeStyle;rounded=0;orthogonalLoop=1;jettySize=auto;html=1;exitX=1;exitY=0.5;exitDx=0;exitDy=0;entryX=0;entryY=0.5;entryDx=0;entryDy=0;" edge="1" parent="1" source="xIAFL48G_zA7Xw-LlSgU-8" target="xIAFL48G_zA7Xw-LlSgU-2">
          <mxGeometry relative="1" as="geometry">
            <Array as="points">
              <mxPoint x="260" y="290" />
              <mxPoint x="260" y="160" />
            </Array>
          </mxGeometry>
        </mxCell>
        <mxCell id="xIAFL48G_zA7Xw-LlSgU-11" style="edgeStyle=orthogonalEdgeStyle;rounded=0;orthogonalLoop=1;jettySize=auto;html=1;exitX=1;exitY=0.5;exitDx=0;exitDy=0;entryX=0;entryY=0.5;entryDx=0;entryDy=0;" edge="1" parent="1" source="xIAFL48G_zA7Xw-LlSgU-8" target="xIAFL48G_zA7Xw-LlSgU-3">
          <mxGeometry relative="1" as="geometry">
            <Array as="points">
              <mxPoint x="260" y="290" />
              <mxPoint x="260" y="410" />
            </Array>
          </mxGeometry>
        </mxCell>
        <mxCell id="xIAFL48G_zA7Xw-LlSgU-8" value="&lt;font style=&quot;font-size: 24px&quot;&gt;视频&lt;/font&gt;" style="ellipse;whiteSpace=wrap;html=1;" vertex="1" parent="1">
          <mxGeometry x="110" y="250" width="120" height="80" as="geometry" />
        </mxCell>
        <mxCell id="xIAFL48G_zA7Xw-LlSgU-9" value="&lt;font style=&quot;font-size: 24px&quot;&gt;文本信息&lt;/font&gt;" style="ellipse;whiteSpace=wrap;html=1;" vertex="1" parent="1">
          <mxGeometry x="1080" y="250" width="120" height="80" as="geometry" />
        </mxCell>
        <mxCell id="xIAFL48G_zA7Xw-LlSgU-18" value="&lt;font style=&quot;font-size: 24px&quot;&gt;判断真伪&lt;/font&gt;" style="ellipse;whiteSpace=wrap;html=1;" vertex="1" parent="1">
          <mxGeometry x="1080" y="370" width="120" height="80" as="geometry" />
        </mxCell>
        <mxCell id="xIAFL48G_zA7Xw-LlSgU-22" style="edgeStyle=orthogonalEdgeStyle;rounded=0;orthogonalLoop=1;jettySize=auto;html=1;exitX=1;exitY=0.5;exitDx=0;exitDy=0;entryX=0;entryY=0.5;entryDx=0;entryDy=0;" edge="1" parent="1" source="xIAFL48G_zA7Xw-LlSgU-20" target="xIAFL48G_zA7Xw-LlSgU-18">
          <mxGeometry relative="1" as="geometry" />
        </mxCell>
        <mxCell id="xIAFL48G_zA7Xw-LlSgU-20" value="&lt;font style=&quot;font-size: 24px&quot;&gt;分类器&lt;/font&gt;" style="rounded=0;whiteSpace=wrap;html=1;" vertex="1" parent="1">
          <mxGeometry x="940" y="380" width="120" height="60" as="geometry" />
        </mxCell>
        <mxCell id="xIAFL48G_zA7Xw-LlSgU-23" value="&lt;span style=&quot;font-size: 24px&quot;&gt;图像&lt;/span&gt;" style="text;html=1;strokeColor=none;fillColor=none;align=center;verticalAlign=middle;whiteSpace=wrap;rounded=0;" vertex="1" parent="1">
          <mxGeometry x="255" y="200" width="110" height="20" as="geometry" />
        </mxCell>
        <mxCell id="xIAFL48G_zA7Xw-LlSgU-24" value="&lt;font style=&quot;font-size: 24px&quot;&gt;音频&lt;/font&gt;" style="text;html=1;strokeColor=none;fillColor=none;align=center;verticalAlign=middle;whiteSpace=wrap;rounded=0;" vertex="1" parent="1">
          <mxGeometry x="270" y="340" width="80" height="20" as="geometry" />
        </mxCell>
        <mxCell id="xIAFL48G_zA7Xw-LlSgU-26" value="&lt;font style=&quot;font-size: 24px&quot;&gt;特征图&lt;/font&gt;" style="text;html=1;strokeColor=none;fillColor=none;align=center;verticalAlign=middle;whiteSpace=wrap;rounded=0;" vertex="1" parent="1">
          <mxGeometry x="490" y="170" width="80" height="20" as="geometry" />
        </mxCell>
        <mxCell id="xIAFL48G_zA7Xw-LlSgU-27" value="&lt;font style=&quot;font-size: 24px&quot;&gt;音频编码&lt;/font&gt;" style="text;html=1;strokeColor=none;fillColor=none;align=center;verticalAlign=middle;whiteSpace=wrap;rounded=0;" vertex="1" parent="1">
          <mxGeometry x="480" y="380" width="110" height="20" as="geometry" />
        </mxCell>
      </root>
    </mxGraphModel>
  </diagram>
</mxfile>
